name rise30.3154peak39.0474fall46.5389.mot
datacolumns 19
datarows 23
range 21.84825500000000 21.88492000000000
endheader
time	ground_force1_vx	ground_force1_vy	ground_force1_vz	ground_force1_px	ground_force1_py	ground_force1_pz	ground_force2_vx	ground_force2_vy	ground_force2_vz	ground_force2_px	ground_force2_py	ground_force2_pz	ground_torque1_x	ground_torque1_y	ground_torque1_z	ground_torque2_x	ground_torque2_y	ground_torque2_z	
21.84825500000000	-7.10591800000000	42.44141400000000	-12.41272800000000	0.33758200000000	0.00000000000000	0.07642300000000	-46.52291200000000	758.10992199999998	-50.33917000000000	0.16355100000000	0.00000000000000	-0.09421700000000	0.00000000000000	-9.48803100000000	0.00000000000000	0.00000000000000	-22.75680000000000	0.00000000000000	
21.84991700000000	-7.70373700000000	50.02435400000000	-13.91248500000000	0.34345500000000	0.00000000000000	0.07757800000000	-46.83010700000000	755.07013099999995	-50.12852900000000	0.16273600000000	0.00000000000000	-0.09421800000000	0.00000000000000	-10.74020800000000	0.00000000000000	0.00000000000000	-22.66562600000000	0.00000000000000	
21.85158300000000	-8.14169800000000	57.77752000000000	-15.25977900000000	0.34882100000000	0.00000000000000	0.07859900000000	-47.15356300000000	751.95557099999996	-49.90108300000000	0.16192100000000	0.00000000000000	-0.09421600000000	0.00000000000000	-11.89421500000000	0.00000000000000	0.00000000000000	-22.57470900000000	0.00000000000000	
21.85325300000000	-8.39973900000000	65.60738400000000	-16.42210200000000	0.35375600000000	0.00000000000000	0.07951000000000	-47.49335400000000	748.76495000000000	-49.65639900000000	0.16110800000000	0.00000000000000	-0.09421000000000	0.00000000000000	-12.92256400000000	0.00000000000000	0.00000000000000	-22.48405300000000	0.00000000000000	
21.85491600000000	-8.46634500000000	73.44154500000000	-17.37841300000000	0.35832000000000	0.00000000000000	0.08032900000000	-47.84946900000000	745.49680300000000	-49.39405100000000	0.16029600000000	0.00000000000000	-0.09420100000000	0.00000000000000	-13.80638800000000	0.00000000000000	0.00000000000000	-22.39365000000000	0.00000000000000	
21.85658400000000	-8.33835800000000	81.23119900000000	-18.11922100000000	0.36256200000000	0.00000000000000	0.08107100000000	-48.22181300000000	742.14950699999997	-49.11361800000000	0.15948600000000	0.00000000000000	-0.09418800000000	0.00000000000000	-14.53574300000000	0.00000000000000	0.00000000000000	-22.30347700000000	0.00000000000000	
21.85825700000000	-8.02013900000000	88.95125400000001	-18.64570800000000	0.36652000000000	0.00000000000000	0.08174800000000	-48.61020200000000	738.72127599999999	-48.81469000000000	0.15867700000000	0.00000000000000	-0.09417100000000	0.00000000000000	-15.10912000000000	0.00000000000000	0.00000000000000	-22.21349900000000	0.00000000000000	
21.85992200000000	-7.52226100000000	96.59846100000000	-18.96813300000000	0.37022800000000	0.00000000000000	0.08236900000000	-49.01436100000000	735.21016799999995	-48.49686800000000	0.15787100000000	0.00000000000000	-0.09415100000000	0.00000000000000	-15.53235200000000	0.00000000000000	0.00000000000000	-22.12366600000000	0.00000000000000	
21.86159200000000	-6.85991900000000	104.18806600000001	-19.10376400000000	0.37371100000000	0.00000000000000	0.08294200000000	-49.43392300000000	731.61409300000003	-48.15976600000000	0.15706700000000	0.00000000000000	-0.09412600000000	0.00000000000000	-15.81709900000000	0.00000000000000	0.00000000000000	-22.03391500000000	0.00000000000000	
21.86325600000000	-6.05124600000000	111.74951200000000	-19.07459000000000	0.37699300000000	0.00000000000000	0.08347200000000	-49.86842400000000	727.93081700000005	-47.80301400000000	0.15626600000000	0.00000000000000	-0.09409800000000	0.00000000000000	-15.97910800000000	0.00000000000000	0.00000000000000	-21.94416700000000	0.00000000000000	
21.86492100000000	-5.11567500000000	119.32171900000000	-18.90505500000000	0.38009300000000	0.00000000000000	0.08396500000000	-50.31730300000000	724.15796899999998	-47.42626300000000	0.15546900000000	0.00000000000000	-0.09406500000000	0.00000000000000	-16.03644300000000	0.00000000000000	0.00000000000000	-21.85433000000000	0.00000000000000	
21.86658800000000	-4.07248800000000	126.94839600000000	-18.61997100000000	0.38302700000000	0.00000000000000	0.08442600000000	-50.77990100000000	720.29305399999998	-47.02918100000000	0.15467500000000	0.00000000000000	-0.09402800000000	0.00000000000000	-16.00782500000000	0.00000000000000	0.00000000000000	-21.76429900000000	0.00000000000000	
21.86824900000000	-2.93962100000000	134.67374799999999	-18.24276700000000	0.38581100000000	0.00000000000000	0.08485900000000	-51.25545800000000	716.33345599999996	-46.61146400000000	0.15388500000000	0.00000000000000	-0.09398700000000	0.00000000000000	-15.91119600000000	0.00000000000000	0.00000000000000	-21.67395500000000	0.00000000000000	
21.86992100000000	-1.73279100000000	142.53886000000000	-17.79414400000000	0.38845500000000	0.00000000000000	0.08526500000000	-51.74311400000000	712.27645399999994	-46.17283400000000	0.15309900000000	0.00000000000000	-0.09394100000000	0.00000000000000	-15.76259600000000	0.00000000000000	0.00000000000000	-21.58316200000000	0.00000000000000	
21.87158600000000	-0.46493500000000	150.57890300000000	-17.29116800000000	0.39097200000000	0.00000000000000	0.08564800000000	-52.24190700000000	708.11923300000001	-45.71304100000000	0.15231900000000	0.00000000000000	-0.09389100000000	0.00000000000000	-15.57537300000000	0.00000000000000	0.00000000000000	-21.49177400000000	0.00000000000000	
21.87325400000000	0.85402500000000	158.82123899999999	-16.74679900000000	0.39337100000000	0.00000000000000	0.08601100000000	-52.75077700000000	703.85889299999997	-45.23186900000000	0.15154400000000	0.00000000000000	-0.09383600000000	0.00000000000000	-15.35974000000000	0.00000000000000	0.00000000000000	-21.39963100000000	0.00000000000000	
21.87491600000000	2.21716000000000	167.28441100000001	-16.16980800000000	0.39566000000000	0.00000000000000	0.08635500000000	-53.26856000000000	699.49246900000003	-44.72913600000000	0.15077500000000	0.00000000000000	-0.09377600000000	0.00000000000000	-15.12264200000000	0.00000000000000	0.00000000000000	-21.30655800000000	0.00000000000000	
21.87659000000000	3.62027900000000	175.97791500000000	-15.56502700000000	0.39784800000000	0.00000000000000	0.08668100000000	-53.79399500000000	695.01694199999997	-44.20470000000000	0.15001200000000	0.00000000000000	-0.09371200000000	0.00000000000000	-14.86789800000000	0.00000000000000	0.00000000000000	-21.21237100000000	0.00000000000000	
21.87825500000000	5.06151200000000	184.90265400000001	-14.93383600000000	0.39994000000000	0.00000000000000	0.08699100000000	-54.32572400000000	690.42925700000001	-43.65845700000000	0.14925600000000	0.00000000000000	-0.09364200000000	0.00000000000000	-14.59655400000000	0.00000000000000	0.00000000000000	-21.11687000000000	0.00000000000000	
21.87992000000000	6.54079800000000	194.05188899999999	-14.27483300000000	0.40194400000000	0.00000000000000	0.08728700000000	-54.86229300000000	685.72634100000005	-43.09034800000000	0.14850800000000	0.00000000000000	-0.09356800000000	0.00000000000000	-14.30737600000000	0.00000000000000	0.00000000000000	-21.01984500000000	0.00000000000000	
21.88159100000000	8.05932700000000	203.41254400000000	-13.58457400000000	0.40386400000000	0.00000000000000	0.08757000000000	-55.40215400000000	680.90512100000001	-42.50035900000000	0.14776800000000	0.00000000000000	-0.09348900000000	0.00000000000000	-13.99742700000000	0.00000000000000	0.00000000000000	-20.92107600000000	0.00000000000000	
21.88325000000000	9.61898200000000	212.96668800000000	-12.85834100000000	0.40570600000000	0.00000000000000	0.08784000000000	-55.94367000000000	675.96254299999998	-41.88852400000000	0.14703700000000	0.00000000000000	-0.09340500000000	0.00000000000000	-13.66267600000000	0.00000000000000	0.00000000000000	-20.82032900000000	0.00000000000000	
21.88492000000000	11.22183200000000	222.69306599999999	-12.09085500000000	0.40747400000000	0.00000000000000	0.08809800000000	-56.48511600000000	670.89559599999995	-41.25492600000000	0.14631500000000	0.00000000000000	-0.09331600000000	0.00000000000000	-13.29856400000000	0.00000000000000	0.00000000000000	-20.71736200000000	0.00000000000000	
